
		<svg xmlns="http://www.w3.org/2000/svg" xmlns:xlink="http://www.w3.org/1999/xlink" version="1.1" width="3105.6338028169016" height="1304.5774647887322">
			
			<g transform="scale(5.28169014084507) translate(10, 10)">
				<defs id="SvgjsDefs1917"><linearGradient id="SvgjsLinearGradient1923"><stop id="SvgjsStop1924" stop-color="#25235e" offset="0"/><stop id="SvgjsStop1925" stop-color="#ae4792" offset="1"/></linearGradient><linearGradient id="SvgjsLinearGradient1926"><stop id="SvgjsStop1927" stop-color="#e93e3a" offset="0"/><stop id="SvgjsStop1928" stop-color="#ed683c" offset="0.1"/><stop id="SvgjsStop1929" stop-color="#f3903f" offset="0.3"/><stop id="SvgjsStop1930" stop-color="#fdc70c" offset="0.7"/><stop id="SvgjsStop1931" stop-color="#fff33b" offset="1"/></linearGradient></defs><g id="SvgjsG1918" featureKey="root" fill="#000"/><g id="SvgjsG1919" featureKey="container1" fill="#000" transform="matrix(1.8263416290283203,0,0,1.8263416290283203,19.99999714246589,19.63473167468609)"><path xmlns="http://www.w3.org/2000/svg" d="M23.3 83.5zm55.3-37.8h.3-.3zm23.5 7.9a15.2 15.2 0 0 0-.6-1.9V51c.2-.3.4-.5.4-1.6s0-1.6-.1-2.4-.1-1.7-.2-2.6l-.7-.8a49.6 49.6 0 0 0-7.7-19.9h-.4a2.6 2.6 0 0 0-.3-.7h.2l-1-1.4a40.3 40.3 0 0 0-4.3-5.9 28.9 28.9 0 0 0-6.5-5.5 58.5 58.5 0 0 0-6.7-3.6L72 5.5 71 5A52.6 52.6 0 0 0 58.3.6L57 .3 55.6.2H48a51.1 51.1 0 0 0-17.6 3.6l-.6.3A76.9 76.9 0 0 0 22 8.4a37.7 37.7 0 0 0-5.6 4.4 54.5 54.5 0 0 0-4.9 5.5 68.2 68.2 0 0 0-4.1 6 38.7 38.7 0 0 0-3.1 6.5l-.6 1.3a40.8 40.8 0 0 0-2.9 9.7 60 60 0 0 0-.7 6.3c0 .7 0 1.3-.1 1.9v5.9c.1 1.1.2 2.1.3 3.2s.3 2.1.6 3.2a64.4 64.4 0 0 0 2.4 7.4 46.2 46.2 0 0 0 3 6.3 39.5 39.5 0 0 0 4 6.1l1.4 1.6A52.7 52.7 0 0 0 25.4 95l1.5.9 1.4.8a26.9 26.9 0 0 0 7.7 3.7 50.5 50.5 0 0 0 6.6 1.7l3.4.5 3.4.2a40.9 40.9 0 0 0 10.1-.9l2.8-.7 2.9-.7a36.5 36.5 0 0 0 4.9-1.6l1.4-.6 1.4-.7 2.7-1.4a54.9 54.9 0 0 0 9.7-6.5c2.2-1.9 4.3-4.2 6.3-6.3l.9-1.1c1.2-2.1 2.7-4 4-6.1l.6-.8c1.6-3.2 2.8-6.6 4.2-9.8l.2-.7a53.4 53.4 0 0 0 .9-6.1c.1-1 .1-2 .1-2.9a17.6 17.6 0 0 0-.4-2.3zm-14-29.3a.4.4 0 0 1 .3.4.4.4 0 0 1-.4.4l-.3-.2v-.2a.4.4 0 0 1 .2-.3zm0 51H88l-.3.2a.4.4 0 0 1-.3-.3.6.6 0 0 1 .2-.5h.1l.2-.2h.3c.1.5 0 .7 0 .8zM87.9 44a.7.7 0 0 1-.6.3l-.2-.2a.4.4 0 0 1 .4-.5h.2zm-.3 25.7h.2a.4.4 0 0 1 .4.3.5.5 0 0 1-.1.5h-.2a.4.4 0 0 1-.4-.3.5.5 0 0 1 .1-.5zm1.1-4.2c0-.3.3-.3.3-.3h.3c.3 0 .3.3.3.4l-.2.3h-.5zm.9 13.6h-.4a.5.5 0 0 1-.1-.4l.4-.2h.1c.3 0 .3.3.3.4zm.1-24.4h-.2l-.2-.2a.5.5 0 0 1 .1-.4.6.6 0 0 1 .6-.2l.2.4a.5.5 0 0 1-.5.3zm2.2-30.3h-.3l-.4-.2a.4.4 0 0 1 0-.4h.5l.2.2a.3.3 0 0 1 0 .3zm.2 1.4a.5.5 0 0 1-.1.3l-.2.3a.4.4 0 0 1-.4-.5.5.5 0 0 1 .6-.4zm-.6 10.4v.4h-.1a.8.8 0 0 1-.6.3h-.6a.4.4 0 0 1-.1-.5.7.7 0 0 1 .5-.5h.1a.7.7 0 0 1 .8.2zm-.9 22.4l.5.2a.4.4 0 0 1 0 .4h-.9v-.3a.4.4 0 0 1 .4-.4zm.5-.7a.5.5 0 0 1 .1-.3l.3-.2a.7.7 0 0 1 .4.8h-.6zm.1.8l.3-.2c.3 0 .4.3.4.4a.4.4 0 0 1-.4.4h-.2a.6.6 0 0 1-.1-.7zm.6 11.7h.2a.7.7 0 0 1 .3.6l-.3.2a.6.6 0 0 1-.5-.4.4.4 0 0 1 .3-.5zm.1-28.4h-.3v-.3a.6.6 0 0 1 .8-.4l.2.4h-.1c-.2.1-.4.3-.6.3zm.4-11H92l-.2-.2a.5.5 0 0 1 .1-.5l.3-.3c.5 0 .4.5.4.7zM82.1 53.9a.5.5 0 0 1-.4-.2h-.1l-.2-.3a.4.4 0 0 1 .7 0 .6.6 0 0 1 .1.5zm3.5-34.1c0 .1-.2.3-.5.3h-.5l-.3-.3a.8.8 0 0 1 .9-.6h.1v.2zm-.7 4.3a.5.5 0 0 1 .1.4h-.3a.4.4 0 0 1-.3-.2h.1l-.2-.3c0-.2.4-.2.6.1zm-.6 19a.5.5 0 0 1-.1.4l-.4.2h-.1l-.2-.4a.6.6 0 0 1 .6-.4zM83.5 81v.2l-.3.2H83l-.2-.3v-.2l.3-.2h.2zm-.3-12.6h-.3l-.2-.2V68l.2-.2h.5a.4.4 0 0 1 .1.3zm.9-15.3l-.2-.3a.4.4 0 0 1 .4-.3l.6.3h.1v.3a.4.4 0 0 1-.4.3l-.5-.2zm1 29h.4v.4a.4.4 0 0 1-.4.4H85l-.2-.2a.5.5 0 0 1 .2-.6zm.5-3.9a.5.5 0 0 1 .1-.5l.4-.3.2.2.3.2a.5.5 0 0 1-.1.4l-.4.2H86zm.8-25.3l-.4.2h-.1l-.2-.2a.5.5 0 0 1 .4-.5l.2-.2h.3l.2.2v.3l-.2.2h-.2zM86 31.6l.2-.3h.4a.5.5 0 0 1 .1.4l-.4.2h-.1c-.3 0-.3-.3-.3-.4zm-3.8-18l-.2.2h-.3l-.2-.2a.4.4 0 0 1 .1-.4h.1zM80 44.3s-.3-.3-.2-.5l.2-.2.3.2c.3 0 .4.2.4.3s-.1.3-.4.3H80zm.1 19.3v.2c-.5.1-.2-.6 0-.3zm-15 30.3H65a.4.4 0 0 1 .6.1.6.6 0 0 1-.1.6h-.2c-.3 0-.3-.3-.3-.4h.1zm-1.8-4.5c.1-.1.1-.2 0-.2h.1V89c.2 0 .4.2.4.5a.4.4 0 0 1-.1.3h-.2v-.2zm-2.5-70.5l-.2-.2v-.2l.2-.2a.5.5 0 0 1 .5.1.4.4 0 0 1 .1.3l-.2.2zm-.1.8v-.3c.3-.1.3.5 0 .4zm-.9 52.5a.2.2 0 0 1 0-.2h.1a.3.3 0 0 0 0-.2v-.3h.3a.5.5 0 0 1 .1.4.5.5 0 0 1-.5.5v-.2zm-.2-2.2l-.4-.2a.5.5 0 0 1-.1-.4l-.2-.3v-.2l.3-.2h.2l.2.3h.2a.5.5 0 0 1 .1.4l-.2.2zm0 4.3h-.4l-.2-.2a.4.4 0 0 1 .1-.4l.3-.2.3.3a.5.5 0 0 1-.2.5zm-2.3 13.2c0-.2.1-.4.6-.4h.1l.2.2a.5.5 0 0 1-.2.6l-.2.2h-.1a.4.4 0 0 1-.4-.3h.1zm-2.2-42.8c0 .3-.2.3-.3.3h-.3l-.3-.2a.9.9 0 0 1 .1-.5v-.2h-.1l-.2-.2a2.5 2.5 0 0 1 .5-1.3h.4a1.8 1.8 0 0 1-.1 1 1.3 1.3 0 0 0 .3 1.1zm-.8 38.5l-.2.3a.6.6 0 0 1-.6-.6v-.2h.2l.2-.2h.2a.6.6 0 0 1 .1.5.8.8 0 0 0 .1.2zm0 5.5l-.2.3-.3.2c-.3-.1-.3-.4-.3-.5a.7.7 0 0 0 0-.1l.2-.3h.2l.2.3h.1zm-2-22.3c.1-.1.1-.2 0-.2h.1V66c.2 0 .4.2.4.5a.4.4 0 0 1-.1.3h-.2v-.2zm.3-1h-.3l-.2-.2v-.3l.2-.2h.4a.5.5 0 0 1 .1.4zM52.5 25h-.1l-.2-.2a.5.5 0 0 1 .1-.3l.3-.3.3.2.2.3a.5.5 0 0 1-.6.4zm.3-1.2l-.3.2a.7.7 0 0 1-.4-.8l.2-.2h.3l.2.2zM52 97.3l.2-.2h.1a.5.5 0 0 1 .6.1h.1a.5.5 0 0 1-.1.4l-.4.2-.4-.2a.5.5 0 0 1 0-.2zm-9.2-53.6h-.3a.7.7 0 0 1 .2.4l.3.2a.5.5 0 0 1-.1.4h-.4l-.2-.4-.3-.2-.2-.3a.4.4 0 0 1 .4-.2h.1a.4.4 0 0 1 0-.3h.1l-.2-.3c-.2 0-.6-.1-.5-.6l.2-.2a.6.6 0 0 1 .6.2.5.5 0 0 1 .1.4h.1a.4.4 0 0 1 .4.3c0 .2-.2.4-.3.6zm.1 8.7h-.4a.6.6 0 0 1-.4-.6l.2-.2h.4l.2.2a.6.6 0 0 1 0 .6zm-2.4 34.2c0-.3.3-.3.4-.3h.1l.3.2v.3l-.2.2H41a.4.4 0 0 1-.3-.2h.1zm-2.7-23l-.3.3c-.1 0-.5-.1-.4-.7l.2-.2h.4a.5.5 0 0 1 .1.4.8.8 0 0 0 .1.2zm-2.5 30.1a.5.5 0 0 1 .1-.4.4.4 0 0 1 .4-.1l.2.3h-.1a.4.4 0 0 1 .3.5l-.2.2a.4.4 0 0 1-.4-.2l-.3-.3zM16.7 19.6h-.4l-.2-.2a.3.3 0 0 1 .3-.3h.4l.2.2a.3.3 0 0 1-.3.3zm.7.3h.1l.2.3a.5.5 0 0 1-.5.3h-.3a.5.5 0 0 1-.1-.4l.2-.2zm-.7 14.4a.4.4 0 0 1 0 .4h-.4l-.2-.3H16a.3.3 0 0 1 .1-.3.5.5 0 0 1 .6.2zM16 79.5l.2-.2h.3l.2.2v.3l-.2.2h-.3l-.2-.2zm.7-.7c-.3-.1-.3-.4-.3-.5a.7.7 0 0 0 0-.1l.3-.3a.4.4 0 0 1 .4.3.5.5 0 0 1-.1.5zm0-4.8h-.2v-.2c0-.2.1-.4.3-.4l.3-.2a.4.4 0 0 1 .3.4.6.6 0 0 1-.7.4zm.3-37.8h-.3V36c0-.1.1-.3.4-.3h.3l.2.4a.5.5 0 0 1-.6.1zm.4-10H17l-.2-.4a.7.7 0 0 1-.2-.6h.2l.2-.2h.3l.2.3c0 .2.1.3.4.4l.2.3a.4.4 0 0 1-.4.4h-.4zM33.3 40c.1-.4.5-.4.7-.1a.4.4 0 0 1 0 .4h-.5l-.2-.4zm0-15.6l-.2-.3v-.2l.3-.2h.2l.2.3v.2l-.3.2zm1.2 23.8h.2a.6.6 0 0 1 .1.5.2.2 0 0 0 0 .2l-.2.3a.9.9 0 0 1-.7-.7v-.2a.5.5 0 0 1-.2-.4l.2-.3h.4l.2.3zm.2 10.2l-.4.2a.5.5 0 0 1-.4-.2.5.5 0 0 1 0-.5h.4c.3 0 .4.2.4.3a.4.4 0 0 1 0 .1zm-.3 11.2a.5.5 0 0 1 .1.4h-.1l-.4.2a.5.5 0 0 1-.4-.3h-.1l-.2-.4a.7.7 0 0 1 1.1 0zm.1-7.4h-.2l-.2-.2a.4.4 0 0 1 .1-.3.5.5 0 0 1 .4-.2h.4l.3.2v.3a.8.8 0 0 1-.8.1zm.5-21.6h-.2v-.2a.4.4 0 0 0 0-.2.6.6 0 0 1-.1-.3h.2a.4.4 0 0 1 0-.2l.2-.2H35a.4.4 0 0 1 .4.2v.2a.3.3 0 0 1 .4.2.5.5 0 0 1 0 .5H35zm-.2-25.1l.3-.2a.7.7 0 0 1 .3.6l-.2.2h-.4a.5.5 0 0 1-.1-.4zm.8 3.8l.2.2a.3.3 0 0 1-.1.3h-.3l-.4-.2a.4.4 0 0 1 0-.4h.5zM35.2 56l.2-.2h.4l.2.4a.6.6 0 0 1-.6.4h-.1l-.2-.2zm-3.8-41.3a.3.3 0 0 1-.2-.3.6.6 0 0 1 .5-.5.4.4 0 0 1 .3.2.4.4 0 0 1-.1.3l-.3.2zm.4 27.8l.3-.2h.2l.2.3v.2l-.3.2H32l-.2-.3zm-9 41.2c0-.2.1-.3.1-.4a.6.6 0 0 1 0-.4l.3-.2c.3.1.6.3.6.6a.5.5 0 0 1-.1.5h-.4c0 .3-.2.4-.4.4v-.3zm-2.2-26.1l.3.2.2.3a.5.5 0 0 1-.5.4l-.4-.2a.5.5 0 0 1-.1-.4l.3-.2h-.1zm.7-34a.4.4 0 0 1-.4.3l-.4-.2a.4.4 0 0 1 0-.4h.5l.2.2a.4.4 0 0 1 0 .1zm-.6 2.9h.1a.5.5 0 0 1 .4.5l-.4.2h-.1c-.1 0-.3-.1-.3-.3l.3-.3zm.7 23.8v.3l-.2.3-.3.2a.3.3 0 0 1-.3-.4.5.5 0 0 1 .8-.4zm-.9 30.1h.6l.3.2a.4.4 0 0 1-.1.3l-.4.2h-.3a.4.4 0 0 1-.2-.7zm.8-1.7v-.2l.3-.2h.1l.3.2v.2a.4.4 0 0 1-.4.4h-.2zm.4-20.9h-.1l-.2-.2a.7.7 0 0 1 .1-.5.5.5 0 0 1 .5-.1l.2.3c-.1.2-.2.6-.6.6zM22 30h-.5v-.4h.2l.2-.3h.4a.4.4 0 0 1 .5.2.6.6 0 0 1 .1.6l-.2.2H22zm.7-13.1a.6.6 0 0 1 .7-.4v.3a.5.5 0 0 1-.3.4H23l-.3.2a.4.4 0 0 1 0-.6zm1 6v.1l-.3.2h-.2l-.2-.3v-.2l.3-.2h.2zm.1 64.2l.3-.2a.4.4 0 0 1 .3.4.5.5 0 0 1-.4.4l-.3-.2v-.2a.4.4 0 0 1 .1-.2zm.4-51.1l-.2.3h-.5a.4.4 0 0 1-.1-.5.2.2 0 0 0 0-.1l.2-.3h.1v-.3a.7.7 0 0 1 .6-.3l.3.2v.3l-.2.2h-.3a1 1 0 0 1 .1.5zm1-9.6h.2v-.2h.3v.2a.3.3 0 0 1-.3.4v-.2zm0 3.9c0 .1-.1.2-.1.2l-.3.3-.3-.2a.5.5 0 0 1 0-.4.5.5 0 0 0 0-.2l.2-.3a.4.4 0 0 1 .4.2.4.4 0 0 1 .1.4zm-.1-9.6h-.3l-.2-.2a.3.3 0 0 1 0-.1h-.1v-.3a.3.3 0 0 1 .3-.2l.6.3a.5.5 0 0 1 .1.4zm.1 20.1v-.3h-.1l-.2-.2a1.3 1.3 0 0 1 0-.6h-.1l-.2-.3-.3-.3v-.2a.3.3 0 0 0 .1-.3l.3-.3a.9.9 0 0 1 .5.6h.4l.2.3a.4.4 0 0 1-.4.3h.3c.1 0 .3 0 .4.2h.1v.4a.2.2 0 0 0 0 .2h.1l.2.4a.4.4 0 0 1-.3.2l-.4-.2h.2l-.2.3h-.2a.5.5 0 0 1-.4-.2zm0 6.9a.5.5 0 0 1-.5.4h-.1l-.2-.2a.4.4 0 0 1 0-.4.4.4 0 0 1 .3-.1h.3zm3.4-37h-.8l-.3-.2v-.2c0-.3.3-.5.6-.5l.5.2a.5.5 0 0 1 .1.7zm0 13.5h.2a.4.4 0 0 1 .4.3.5.5 0 0 1-.1.5H29a.4.4 0 0 1-.4-.3.5.5 0 0 1 .1-.5zm-.8 50h-.3l-.2-.2v-.2l.4-.2h.1c.1 0 .3.1.3.3l-.3.3zm-.7-14.6l-.2-.2v-.2l.2-.2a.5.5 0 0 1 .5.1.4.4 0 0 1 .1.3l-.2.2zm.5-35.7H27v-.4l.2-.2.2-.3a.8.8 0 0 1 .6.2v.3a.5.5 0 0 1-.3.4zm0-8.3a.4.4 0 0 1-.2.3l-.2.2c-.3 0-.3-.3-.3-.4l.4-.2h.2zm-.8 16.9l.3-.2h.2l.2.3v.2l-.3.2H27l-.2-.3zm-.1 2l.2.3c0 .2-.1.5-.5.5h-.1l-.2-.2v-.4l.2-.2zm.2 41.5a.4.4 0 0 1 .4-.3.4.4 0 0 1 .4.2.3.3 0 0 1 0 .3l-.3.2-.3-.2a.4.4 0 0 1-.2-.2zm1.1 5.8a.4.4 0 0 1 0 .4h-.3l-.3-.2-.2-.3c.2-.2.6-.1.8.1zm-.1-2.6V79l.2-.2a.5.5 0 0 1 .5.1.4.4 0 0 1 .1.3l-.2.2h-.3zm.8-6.6a.5.5 0 0 1 .1-.5h.2c.3.1.3.4.3.5l-.3.3a.4.4 0 0 1-.3-.3zm.4-21.5l.2-.2h.4l.2.2a1.4 1.4 0 0 0 0 .3.6.6 0 0 1-.2.6h-.4a.9.9 0 0 1-.2-.9zm1.3-3.2c-.1 0-.1 0-.1-.4h.1V47c.3 0 .5.3.5.7a.7.7 0 0 1-.1.3l-.4.2v-.3zm-.2-26.2c-.1-.2 0-.4.1-.6h.2l.3.2a.6.6 0 0 1-.1.6l-.2.2zm0 28.4l.2.2a.3.3 0 0 1-.1.3H30l-.4-.2a.4.4 0 0 1 0-.4h.5zm0 5l.2.2a.5.5 0 0 1-.1.4.6.6 0 0 1-.5.2h-.2l-.2-.3a.7.7 0 0 1 .8-.4zm-.6 12.7l.2-.2h.3l.2.2v.3l-.2.2h-.3l-.2-.2zm.9 1.3h.2l.3.2v.4l-.2.2-.5-.2a.7.7 0 0 1-.2-.6zm0 1.5l.3-.2h.2l.2.3v.2l-.3.2h-.2l-.2-.3zm.4-40.6h-.4l-.2-.3c.1-.2.2-.3.3-.3l.3.2.2.3a.3.3 0 0 1-.2.2zm-11.7-1.1h.1l.3.2a.6.6 0 0 1-.1.5.8.8 0 0 1-.6.2l-.2-.2c-.2-.6.3-.7.5-.7zm-.3-8c0-.3.3-.3.4-.3h.1l.3.2v.3l-.3.2-.3-.2zm-.2 29.9h.5a.4.4 0 0 1 .3.2h-.1l.2.3a.4.4 0 0 1-.4.3l-.4-.2a.4.4 0 0 1-.1-.6zm.6 25.2h.2a.4.4 0 0 1 .4.3h-.1l.2.3a.4.4 0 0 1-.4.2.5.5 0 0 1-.5-.4.4.4 0 0 1 .2-.5zm-.2 9.6h.2a.3.3 0 0 1 .3.3.4.4 0 0 1 .1.4h-.3l-.5-.5a.4.4 0 0 1 .2-.3zm.8 1.1a.6.6 0 0 1 .5.3zm15.3-11h.1v-.3a.5.5 0 1 1 0 .9V76h-.1zm1-14.8v-.4a.6.6 0 0 1 .6-.2h.1l.4.2a.6.6 0 0 1-.7.6h-.2zm1.6-15.4h-.1l-.2-.2a.5.5 0 0 1 .1-.5h.1l.3-.2.3.2a.5.5 0 0 1 0 .4l-.2.2zm.2-11.2h-.2a.7.7 0 0 1-.1-.4v-.2a.5.5 0 0 1 .6-.1h.1l.3.3a.8.8 0 0 1-.7.4zm.6 2.4a.3.3 0 0 1-.1.3h-.3a.5.5 0 0 1-.4-.4.3.3 0 0 1 .1-.3h.2a.6.6 0 0 1 .5.5zm-.3 18.8h.1l.3-.2a.5.5 0 0 1 .2.5.6.6 0 0 1-.5.5h-.2l-.2-.2a.5.5 0 0 1 .3-.5zm1.6 4.7l-.3.2-.3-.2a.4.4 0 0 1-.1-.3.4.4 0 0 1 .4-.3.4.4 0 0 1 .4.2.3.3 0 0 1-.1.5zm.2 2.1v.2l-.3.2h-.2l-.2-.3v-.2l.3-.2h.2zm-.7-48.5l-.3.2-.3-.2a.4.4 0 0 1 .3-.6.4.4 0 0 1 .4.2.3.3 0 0 1 0 .5zm-.9 55.9v-.4l.3-.2c.4.1.7.4.7.9v.2h-.9v-.7zm.9 10.9h.3a.5.5 0 0 1 .3.7l-.3.2a.6.6 0 0 1-.3-.5.5.5 0 0 1 0-.4zm.4-17.2a.4.4 0 0 1 .1-.4l.3-.2.3.3a.5.5 0 0 1-.1.4H40zm1.7-16.7v.3H41a.4.4 0 0 1-.1-.3h.2l-.3-.3c0-.3.3-.3.4-.3h.1l.3.2zm.1 24.6v.2l-.3.2h-.2l-.2-.3v-.2l.3-.2h.2zm-.9-57.2v-1h.1V13h.3a.6.6 0 0 1 .2.4.6.6 0 0 1-.5.8zm.3 74.8c.1-.2.2-.2.3-.2l.3.2.3.2a.3.3 0 0 1-.1.3h-.6l-.3-.3a.3.3 0 0 1 .1-.2zm.4-43.7h-.1c-.1 0-.3-.1-.3-.3l.3-.3h.1a.5.5 0 0 1 .4.5zm.6-16.4v-.2l.3-.2a.5.5 0 0 1 .4.5l-.2.2h-.4zm2.1-7.3h.4a.5.5 0 0 1 .1.4l-.2.2H44a.5.5 0 0 1-.1-.4zm-.2-2.3h-.2l-.2-.3v-.2l.3-.2h.2l.2.3v.2zm-.8 38.6h.1l.5-.2h.1l.2.2v.3l-.3.2h-.2a.4.4 0 0 1-.4-.5zm.7-11.6a.5.5 0 0 1-.5-.5v-.2a.8.8 0 0 1 1 0v.2a.6.6 0 0 1-.5.6zm.4-2.3h-.1a.5.5 0 0 1-.3-.5l.2-.2h.1c.4 0 .5.4.5.5zM44 32.2V32a1 1 0 0 1 .2-.8h.7l.2.2v.2a.6.6 0 0 1 .1.8h-.4zm1.8 57a.6.6 0 0 1-.1.5h-.5a.5.5 0 0 1-.3-.6l.2-.2h.4zm-.1-5.2l.3-.3.3.2a.4.4 0 0 1 0 .3l-.3.2c-.3-.1-.3-.4-.3-.5a1 1 0 0 0 0 .1zm.7-8.1v-.4h.1a.4.4 0 0 1 .4.3.9.9 0 0 1 .1.3c0 .4-.2.4-.3.4h-.4a.4.4 0 0 1 0-.3l.1-.3zm.3-2.4h.1a1 1 0 0 1 .9 0v.7l-.4.2a1 1 0 0 1-.6-.3h-.1v-.3zm3.6 14.9h.3a.7.7 0 0 1 .4.5.5.5 0 0 1-.1.5h-.4c-.2-.2-.5-.6-.1-.9zm-.2-4.8l.3-.2a.5.5 0 0 1 .3.5.4.4 0 0 1-.4.4h-.2a.7.7 0 0 1 .1-.6zm.5-1.1h-.4a.5.5 0 0 1-.2-.4.6.6 0 0 1 .3-.5h.4a.4.4 0 0 1 .2.3.6.6 0 0 1-.2.7zm.2-13.1a.6.6 0 0 1-.5-.2.5.5 0 0 1-.1-.3v-.3c.1-.3.2-.4.4-.4h.4v.2l.2.2a.6.6 0 0 1 .1.4l-.3.2zm-.1-7.1c-.4-.1-.4-.4-.4-.5l.2-.2a.5.5 0 0 1 .5.1.5.5 0 0 1 .1.5h-.4zm.5-16.6l-.5.2a.6.6 0 0 1-.6-.5l.3-.3h.7l.2.2a.6.6 0 0 1-.1.5zm-1 27a.4.4 0 0 1 .3.5.5.5 0 0 1-.4.4h-.2v-.4h.1s0-.1.1-.3zm-.3-47.5h-.2c-.4 0-.5-.4-.5-.6l.2-.3a.6.6 0 0 1 .6.6zm-3.1 57a.5.5 0 0 1-.2-.6l.3-.2h.8l.2.2a.5.5 0 0 1-.3.6h-.1l-.3.2H47l-.2-.3zm.3 1.9a.5.5 0 0 1 .5.2l.3.4h.2a.4.4 0 0 1 .4.4.5.5 0 0 1-.5.4h-.2v-.3h-.1a.7.7 0 0 1-.6-.8zm2.1-34.6c0 .1-.1.3-.3.3s-.3-.2-.3-.3h.1l-.2-.4a.4.4 0 0 1 .3-.2c.3 0 .3.3.4.4h-.1zm-.1 22.3l-.3.2a.7.7 0 0 1-.3-.6l.3-.3c.1.1.5.2.4.8zm-.5-8.3h.2l.2.4a.3.3 0 0 1-.3.2h-.2l-.2-.3v-.2zm-.3 32.7v-.3a.5.5 0 0 1 .5.1h-.2l.3-.2.2.2a.3.3 0 0 1-.1.3h-.1l-.2.4h-.4l-.2-.3zm.8-.9H49l-.2-.2v-.4l.2-.2h.2l.2.2v.4zm.1-87.8h-.3a.7.7 0 0 1-.6-.4.6.6 0 0 1 .1-.6h.3a1.2 1.2 0 0 1 .5.8zm-.8 41.2c0 .2-.1.6-.6.6h-.2a.4.4 0 0 1-.1-.5.3.3 0 0 0 0-.2l.2-.3h.5zM48 23.4h-.4l-.2-.2a.5.5 0 0 1 .1-.4l.3-.2.3.3a.4.4 0 0 1 0 .6zm0-10.7l-.3.2h-.1c-.2 0-.6-.1-.5-.6l.2-.2h.2a.4.4 0 0 1 .5.6zm2.1 84.8a.3.3 0 0 1-.4-.3c0-.2 0-.3.1-.4h.4l-.2-.3v-.2l.3-.2h.2l.2.3h-.1l.3.2v.2a1.2 1.2 0 0 1-.4.8h-.2a.4.4 0 0 1-.2 0zm.9-16a.4.4 0 0 1 0-.4h.7l.2.2a.3.3 0 0 1-.1.3l-.4.2zm5-47.2l.2-.2a.6.6 0 0 1 .5.1l.3.3a.5.5 0 0 1-.5.4l-.4-.2a.5.5 0 0 1-.1-.4zm-.1-23.7c-.1-.3.2-.6.3-.7h.3a.6.6 0 0 1 .4.3.5.5 0 0 1-.1.4v.2l-.3.2c-.4-.1-.6-.2-.6-.4zm-2.1 37.8l.2-.2a.4.4 0 0 1 .4.1.5.5 0 0 1 .1.4.6.6 0 0 0 0 .1l-.3.3c-.1 0-.4-.1-.4-.7zm-.1-16.3l-.2-.2-.2-.4a.7.7 0 0 1 .6-.3l.2.2a.6.6 0 0 1-.1.5zm.4-5.3h-.3l-.2-.3v-.2l.3-.2a.5.5 0 0 1 .4.5l-.2.2zm-1-7l.3-.2.2-.2a.6.6 0 0 1 .6.2h.1l.2.3a.5.5 0 0 1-.5.3h-.1a.4.4 0 0 1 0 .1.4.4 0 0 1-.5.3h-.1l-.2-.2zm.2 30.3a.4.4 0 0 1 .5.2.7.7 0 0 1-.2.6h-.2c-.3-.1-.3-.4-.3-.5a.9.9 0 0 0 0-.1zm.1 8.5h.5l.2.3a.4.4 0 0 1-.2.3l-.2.2c-.1 0-.3 0-.3-.3zm.7 22.7l-.2-.2a.6.6 0 0 1 .1-.5l.3-.2a.7.7 0 0 1 .3.6l-.2.3zm1.1-43.2l-.3.2h-.2l-.2-.3v-.2l.3-.2h.2l.2.3zm.6 3.6h.4l.2.2a1 1 0 0 1-.2.8h-.3l-.3-.3h-.1l-.3-.3c.1-.2.2-.4.5-.4zm.6 6.3a.5.5 0 0 1 .1.4l-.2.2h-.1a.7.7 0 0 1-.5-.3h-.1V48c-.1-.3.4-.3.7 0zm.4 2.9h.3l.3.2a.3.3 0 0 1-.3.3h-.4v-.3c-.3-.2-.1-.2-.1-.2zm.8 11.3v.4h-.2l-.4.2h-.3v-.2a.8.8 0 0 1 .7-.4zm.7-41.6c-.2-.2 0-.3 0-.5v-.2a.5.5 0 0 1 .5.5.4.4 0 0 1-.1.3h-.4v-.3zm.2 29.4l-.2-.2v-.2l.2-.2c.3-.1.5.1.5.5l-.3.3zm.4-36.7v.2l-.2.2h-.2l-.2-.2v-.3l.2-.2h.2l.2-.3.3-.2a.5.5 0 0 1 .4.3l.2.3a.4.4 0 0 1-.4.3h-.3zM60.2 42l-.4-.2h-.2l-.3-.3a.4.4 0 0 1 .4-.4l.7.3h.1v.3c.1 0 0 .3-.3.3zm-.6-7.3h.2l.3.2v.2a.4.4 0 0 1-.4.4h-.2v-.4l.3-.2zm14.5-23.5a.8.8 0 0 1 .1.3l-.3.2h-.6a.7.7 0 0 1-.1-.8.6.6 0 0 1 .5-.4h.1l.2.3a.3.3 0 0 0 .1.4zm1.4-2.4a.5.5 0 0 1 .4.5.5.5 0 0 1-.5.4H75v-.6l.3-.2zm.7 74.6l-.2.3h-1.7l-.2-.3.2-.3.2-.3h.9a.6.6 0 0 1 .6-.2l.2.2a.6.6 0 0 1-.1.5v.1zM73 71.1h-.3l-.2-.2v-.3l.2-.2h.5l.2.2h.3l.3.4h.3a.6.6 0 0 1-.2-.6h.2a.8.8 0 0 1-.2-.6.3.3 0 0 1 .3-.2h.2a.5.5 0 0 1 .1.4l.2.2a.4.4 0 0 1-.1.3.6.6 0 0 1 .2.6l-.3.2a.9.9 0 0 1 0 .6.5.5 0 0 1-.5.4h-.9a.6.6 0 0 1 0-.4zm.5-16.1l.3-.2c.1.1.4.2.4.4a.4.4 0 0 1-.1.4h-.3a.7.7 0 0 1-.3-.6zm1.4-17.9l-.3.2a.3.3 0 0 1-.2-.4.5.5 0 0 1 .5-.4.4.4 0 0 1 .4.2.4.4 0 0 1-.5.4zm.4 29.4l.2.2v.3l-.2.2H75l-.2-.2v-.3l.2-.2zm-1.8 19.7h.4l.2.2.3.3a.4.4 0 0 1-.4.4l-.3-.2a.6.6 0 0 1-.2-.7zm2-13.8l-.2-.2v-.4l.3-.2a.6.6 0 0 1 .4.6s-.1.2-.5.2zm.2-50h-.4l-.2-.3v-.2l.3-.2a.5.5 0 0 1 .4.5zm-.7-8.7l.2.2a.4.4 0 0 1-.1.4l-.2.2h-.2l-.2-.2V14l.2-.2zm-.1 5.3a.4.4 0 0 1 0 .4h-.4l-.2-.3h-.1a.3.3 0 0 1 .1-.3.5.5 0 0 1 .6.2zM74 30.5a.8.8 0 0 1 .2.6l-.3.2-.8-.4v-.3a.6.6 0 0 1 .8-.1zm-.7 21v.4l-.3.2a.7.7 0 0 1-.5-.2v-.2h-.1l-.3.2c-.3 0-.3-.3-.3-.4l.2-.3h.4l.2.2.2-.2h.2zm-.7-31l-.2.2a.6.6 0 0 1-.6-.4.5.5 0 0 1 .1-.6h.3a.7.7 0 0 1 .3.8zm-.3 19.8v.2c-.6.2-.3-.5-.1-.2zm-.3 7.8h.3l.2.2v.3l-.2.2h-.1a.4.4 0 0 1-.4-.2l-.2-.3c-.1.1 0-.1.3-.1zM71.8 68h.4v.4H72a.6.6 0 0 1-.5.3l-.3-.3a.4.4 0 0 0 0-.2l-.3-.2a.4.4 0 0 1 .4-.4zm-.7 8.6a.5.5 0 0 1 .1-.4h.4l.2.2a.4.4 0 0 1 0 .1v.2c0 .2-.2.3-.5.3v-.2.2h-.1zm.3 13.5l-.2.3h-.3l-.2-.4v-.2l.2-.2c.3 0 .4.1.4.5zM71.1 65a.5.5 0 0 1-.4.3l-.2-.2a.5.5 0 0 1 .1-.3l.2-.3h.2v.4zm-1.5 1.4h-.4l-.2-.2a.4.4 0 0 1 .1-.4l.3-.2.3.3a.5.5 0 0 1-.2.5zm0 6.3l-.3.2H69a.7.7 0 0 1 0-.7h.4a.6.6 0 0 1 .2.5zm-.4-25l-.3-.3a.4.4 0 0 1 .7-.3.5.5 0 0 1 .1.4l-.4.2zm.5 16.5V64l.2-.2h.2l.2.2a.4.4 0 0 1-.1.3.5.5 0 0 1-.4.2zM71 33.5l-.3.2h-.4l-.2-.3h-.2l-.4-.2a.4.4 0 0 1 0-.4h.2a.4.4 0 0 1 .5.2h-.1l.2.3h.2l.3-.2h.2l.2.2zm-.7-23.9h-.4c-.4-.1-.4-.4-.4-.5h.4c.4.1.5.3.4.5zm-.7 6.9a.6.6 0 0 1-.5.3l-.4-.2v-.2c.1-.3.3-.4.4-.4h.4zm-.7 35.1h.1l.3.3a.6.6 0 0 1-.2.4H69l-.3.2-.3-.2a.4.4 0 0 1 .1-.4zm-.7 24h-.1a.3.3 0 0 1 .1-.3.5.5 0 0 1 .7.1.4.4 0 0 1 0 .4h-.4l-.2-.3zm.2-6.4l-.2.2h-.3l-.2-.2V69l.2-.2a.5.5 0 0 1 .5.1.4.4 0 0 1 0 .3zm-.9-29.1h-.3a.7.7 0 0 1 0-.7h.2a.7.7 0 0 1 .7.2h.1v.3a.8.8 0 0 1-.7.2zm-.8 38.6h-.3l-.2-.2v-.2l.4-.2h.1c.1 0 .3.1.3.3l-.3.3zm-.6-15l-.3.2h-.2c-.1-.1-.1-.3 0-.7h.4a.7.7 0 0 1 .1.4zm.2 8l.2.2a.4.4 0 0 1-.4.5H66l-.3-.3c0-.4.3-.5.7-.5zm-.7-18.5l-.3.2h-.2L65 53v-.2l.3-.2h.2l.2.3zm-.1 27.2l.4-.2a.6.6 0 0 1 .4.6l-.2.2h-.3l-.2-.2zM66.8 69l-.3-.2-.2-.3c.1-.4.5-.4.7-.1a.4.4 0 0 1 0 .4zM68 28.3h-.4l-.2-.2v-.4l.2-.2h.2c.5 0 .5.4.5.6zm-.7-1.8l-.3.2h-.3l-.3-.4a.3.3 0 0 1 .3-.3l.6.3a.5.5 0 0 1 .1.4zm-.8 30.3l-.3.2a.6.6 0 0 1-.5-.4.4.4 0 0 1 .2-.4h.2c.2-.1.5 0 .5.6zm-2.4-18a.6.6 0 0 1 .2-.5h.1a.5.5 0 0 1 .6.3.6.6 0 0 1-.1.6h-.3l-.3.2-.4-.2V39a.5.5 0 0 1 .2-.2zm-.6-3.1a.5.5 0 0 1 .1-.4l.2-.2h.2l.2.2v.3l-.2.2h-.3zm1.3-5.6h-.2l-.2-.2a.4.4 0 0 1 .1-.4l.2-.2h.2l.2.2a.4.4 0 0 1-.1.4zm-1.5-6.4l-.4.2h-.1a1 1 0 0 1-.4.5H62a.3.3 0 0 1-.2-.4.8.8 0 0 1 .5-.6.5.5 0 0 1 .1-.3h.4c.3 0 .4.2.4.3a.4.4 0 0 1 .1.3zM62.4 55a.6.6 0 0 1-.5-.3.5.5 0 0 1 0-.5h.1a.5.5 0 0 1 .5.3l.2.3a.5.5 0 0 1-.3.2zm0 40.1H62l-.3-.2a.2.2 0 0 1 .1-.2.6.6 0 0 1 .1-.4h.4a.7.7 0 0 1 .1.8zm.4-21.8h.5l.2.2a.4.4 0 0 1-.4.4l-.4-.2a.5.5 0 0 1-.1-.4zm.9 14.1a.7.7 0 0 1-.1-.5l.2-.2h.3l.2.2v.4l-.2.2h-.5zm.6-36.9l.2-.2a.5.5 0 0 1 .5.4l.2.4-.4.2-.4-.2a.7.7 0 0 1-.1-.6zm.7 31.1c0-.3.3-.3.4-.3h.1l.3.2a.5.5 0 0 1-.1.4l-.4.2h-.1l-.2-.2a.3.3 0 0 1 0-.3zm12 7.8l-.2-.3a.5.5 0 0 1 .5-.3h.5l.2.2a.6.6 0 0 1-.1.4l-.2.2a.7.7 0 0 1-.5-.2zm.9-22.5h-.2l-.2-.3v-.2l.3-.2h.2l.2.3v.2zm1.5-31.3a.3.3 0 0 1-.2-.4c0-.2.3-.3.7-.4l.3.2v.3l-.3.2h-.1zm.6-21.1h-.3l-.2-.2a.4.4 0 0 1 .4-.4l.4.2a.5.5 0 0 1 .1.4v.2zm-.1 15.3a.4.4 0 0 1 .1.4l-.2.2h-.2a.5.5 0 0 1-.4-.2l-.2-.3a.4.4 0 0 1 .4-.3zm-.8 6l.2.2v.3l-.2.2h-.3l-.2-.2a.4.4 0 0 1 .1-.4l.2-.2zm-.6 10.1v-.3h.1v-.3a.4.4 0 0 1 .4.4.4.4 0 0 1-.1.3h-.3v-.3zm.7-3.6c-.3.4-.6-.2 0 0zm-.6 1.7v.5l-.2.2a.4.4 0 0 1-.4-.3.7.7 0 0 1 .1-.7h.5zm-.8 4.9h.1l.3-.3a.4.4 0 0 1 .3.3l.3.2c0 .4-.2.5-.4.5h-.1l-.3-.2a.3.3 0 0 1-.2-.2c-.3-.2-.1-.3 0-.4zm.4 40.1h.1a.5.5 0 0 1 .6.3.6.6 0 0 1-.1.6h-.2a.7.7 0 0 1-.4-.5.5.5 0 0 1 0-.4zm.6-5.6h-.2l-.2-.3h.1l-.3-.2a.4.4 0 0 1 0-.3l.2-.2a.4.4 0 0 1 .5.2.6.6 0 0 1 0 .4h.2l.2.3v.2zm.3-39.4c-.1-.2 0-.4.1-.6l.2-.2.3.2c.1.2 0 .4-.1.6l-.2.2zm1.5 32.8l.2-.2h.2l.2.2a.4.4 0 0 1-.1.3l-.4.2-.3-.3zm-39.2-73V4a.3.3 0 0 1-.3.2.4.4 0 0 1-.3-.2h.5zM17.6 17.1h.2a.4.4 0 0 1 .3.4.6.6 0 0 1-.2.4h-.3v-.2l-.2-.2zm-2.8 8.6c.3.1.4.2.4.4a.4.4 0 0 1-.4.4l-.4-.2V26a.4.4 0 0 1 .2-.3zm-.8.3a.4.4 0 0 1-.4.4h-.2a.6.6 0 0 1-.1-.5l.3-.2c.4-.1.5.1.5.3zm-2.3 40.1l-.2-.2-.3-.3a.4.4 0 0 1 .4-.3h.7a.4.4 0 0 1 0 .4.4.4 0 0 1-.3.1zM10 61.6l-.2.2h-.4l-.2-.2v-.2l.2-.2a.5.5 0 0 1 .5.1.4.4 0 0 1 .1.3zm-1.9 5.5a.8.8 0 0 1 .8-.5l.3.2a.6.6 0 0 1-.2.5h-.1l-.2.3h-.1a.4.4 0 0 1-.4-.3h.1zM5.2 41.3a.4.4 0 0 1-.2.4v-.5zm-.8 16.1h-.1v-.6l.2.2zm1.5-6.9c.3-.1.5.1.5.5l-.3.3h-.2l-.3-.3v-.2zm-.7 12.1a.4.4 0 0 1 .4-.3.4.4 0 0 1 .4.4.4.4 0 0 1-.3.4c-.2 0-.4-.2-.4-.2a.3.3 0 0 1-.1-.3zm.4-4.5a.6.6 0 0 1 .1-.6H6a.6.6 0 0 1 .4.4.6.6 0 0 1-.2.5h-.1a.4.4 0 0 1-.4-.3zm.9-1.1H6l-.2-.4a1.8 1.8 0 0 1-.1-.3l.2-.2H6c.1 0 .3 0 .3.3h.1a.5.5 0 0 1 .3.6zm0-3.1h-.7l-.2-.3a.6.6 0 0 1 .6-.5l.4.2a.6.6 0 0 1 .1.5zm0-4.7l-.6-.2a.4.4 0 0 1-.1-.4v-.2a.5.5 0 0 1 .7.1h.1v.5a.5.5 0 0 1-.1.2zm.4 6h.4v.4a.4.4 0 0 1-.4.4H7l-.2-.2a.5.5 0 0 1 .1-.6zm.5-1.3h-.2l-.2-.4v-.2l.3-.2h.2l.2.3v.2zm.9-13.1h-.1l.3.3c-.1.2-.2.3-.3.3l-.3-.2-.2-.3c0-.1.1-.3.3-.3a.3.3 0 0 1 .3.2zm0-8.5a.4.4 0 0 1 .4-.4l.4.2a.5.5 0 0 1 .1.4l-.2.2h-.6zm-.4 1.4h-.3a.6.6 0 0 1-.1-.5l.3-.2c.3 0 .4.3.4.4a.4.4 0 0 1-.4.3zM7.8 51l-.2-.3c0-.3.3-.3.4-.3l.3.2v.4l-.3.2zm2.4-1.8l.3-.2h.2l.2.3v.2l-.3.2h-.2l-.2-.3zm2.4-20.5v.3c-.1.3-.2.3-.3.3H12l-.3-.2a.3.3 0 0 1 .3-.3zm-.1-2.9v.2c-.6.2-.3-.5-.1-.1zm-.3 7.5a.5.5 0 0 1 .1.4l-.3.3h-.4a.5.5 0 0 1-.1-.4l.2-.2h.4zm-.3 19.3v-.3c.2 0 .2.6-.1.4zm0 7.5h.1l.2.3v.2l-.3.2h-.2l-.2-.3v-.2zm.1-20c0-.5.4-.6.6-.6h.2l.3.2a.6.6 0 0 1-.1.3l-.2.3h-.5zm1-15.3h-.4a.9.9 0 0 1 .2.4.4.4 0 0 1-.2.5h-.4a.5.5 0 0 1-.1-.4h.1L12 25a.4.4 0 0 1 .3-.2h.1c.1-.3.2-.4.4-.4h.4v.2c.1.1-.1.2-.2.2zm-1.2-.5h.1v.2h-.1v.3h-.2zm.4 23.5v-.2l.3-.2a.5.5 0 0 1 .4.5l-.2.2h-.4zm.1 25.3l.2-.2h.5l.2.3a.5.5 0 0 1-.5.4h-.1l-.2-.2zm.5-19.2h-.1l-.2-.2a.5.5 0 0 1 .1-.4.5.5 0 0 1 .7 0v.2a.5.5 0 0 1-.4.4zm.3-31.5l-.2.2.2-.3a.5.5 0 0 1 .1.1zM4.4 58.8v-.4h.2l.2.2a.4.4 0 0 1-.1.4l-.2.2zm40.4 39.7zm13.7-.2a.6.6 0 0 1 .2-.4h.1l.2-.2a.6.6 0 0 1 .7.3v.2zm35.2-56.6h-.2l-.2-.2v-.3l.2-.2h.4l.2.3v.2zm.1 29.7h.2l.2.3v.3l-.3.2h-.2l-.2-.3v-.2zm1-17.4v.4h-.1v.3a.5.5 0 1 1 0-.9v.3zm.6-2.5l-.3.2c-.3-.1-.3-.4-.3-.5l.2-.2.3.2a.4.4 0 0 1 0 .4zm1-1.8a.3.3 0 0 1 .3-.2c.2 0 .4.2.4.4a.4.4 0 0 1-.2.4h-.1a.4.4 0 0 1-.3-.4h.1zm.2 8.5h.1c.2 0 .4.1.4.4l-.3.3h-.1c-.3 0-.3-.3-.3-.4zm2.3-17.9l.3-.3a.5.5 0 0 1 .3.3.4.4 0 0 1-.1.4H99a.3.3 0 0 1-.2-.5zm-.4 15.4a.5.5 0 0 1-.5.3l-.5-.2a.5.5 0 0 1-.1-.5l.3-.2h.3l-.2.2.4-.2a.4.4 0 0 1 .2.6zm-.1-15.5a.5.5 0 0 1-.1.5l-.3.3h-.6l-.2-.2a.6.6 0 0 1 1-.5zM97 34.1l.2-.2h.3a.4.4 0 0 1 .1.3l.5.2a.5.5 0 0 1 .1.4l-.3.2a1.7 1.7 0 0 1-.8-.4v-.4s-.2.1-.2-.1zm-.6.5h.3a1.1 1.1 0 0 1 .2.8l-.3.2c-.3 0-.4-.4-.4-.5v-.3zm-.1 2.2h.3a.7.7 0 0 1 .3.6l-.3.2c-.1-.1-.4-.2-.4-.4a.4.4 0 0 1-.1-.4zm-.3 7.3l-.3.2-.4-.2v.2h-1.1l-.3-.2a.6.6 0 0 1 .1-.3l.2-.2h1.1v-.2a.6.6 0 0 1 .6.2.6.6 0 0 1 .1.5zm-1.6-9.6l.2-.2h.2l.3.3h.2l.2.3v.2l-.3.2H95V35h-.2l-.2-.4zm.1.5a1.4 1.4 0 0 1 .7.3h.4a.4.4 0 0 1 0 .3l-.2.2h-.3v.3H95l.2.3v.4l-.3.2h-.3a.4.4 0 0 1-.2-.4h-.1a.6.6 0 0 1-.5-.6.6.6 0 0 1-.4-.2.3.3 0 0 1-.1-.3.4.4 0 0 1 .4-.3.4.4 0 0 1 .4.4h.3v.2h.1a.7.7 0 0 1-.4-.5l.2-.2zm-1.7-.2a.5.5 0 0 1 .2-.4h.2a.7.7 0 0 1 0-.2V34h.2a.3.3 0 0 1 .3.2h.3l.2.2c0 .3-.5.4-.6.4a1.4 1.4 0 0 1 0 .2.7.7 0 0 0 0 .1l-.4.2h-.1c0 .1-.1.2-.1.2v.2h-.3a.5.5 0 0 1-.2-.4.4.4 0 0 1 .3-.4z" fill=""/></g><g id="SvgjsG1920" featureKey="symbol1" fill="#ffffff" transform="matrix(0.9054163694381714,0,0,0.9054163694381714,69.43494484138589,68.25202513049945)"><g xmlns="http://www.w3.org/2000/svg"><path fill="url(#SvgjsLinearGradient1926)" d="M91.161,53.664c-2.414-2.582-5.547-4.3-8.971-4.948c-0.203-3.535-1-6.967-2.379-10.228   c-1.559-3.683-3.787-6.989-6.627-9.829s-6.146-5.069-9.828-6.626c-3.814-1.613-7.865-2.431-12.039-2.431   c-5.962,0-11.751,1.701-16.741,4.92c-4.496,2.9-8.151,6.895-10.632,11.606c-5.512,0.377-10.64,2.722-14.557,6.683   c-4.226,4.274-6.554,9.938-6.554,15.95c0,6.043,2.349,11.729,6.614,16.011c3.874,3.889,8.913,6.201,14.332,6.61l0.028,0.114h56.672   l0.016-0.105c3.883-0.324,7.49-1.992,10.277-4.778c3.117-3.118,4.836-7.265,4.836-11.676C95.61,60.735,94.03,56.732,91.161,53.664z    M79.099,77.249c-0.107,0-0.227-0.001-0.363-0.005l-1.865-0.053l-0.016,0.105H27.088l-0.011-0.042l-1.632-0.007   c-10.151-0.042-18.41-8.335-18.41-18.486c0-10.071,8.19-18.363,18.258-18.486l1.31-0.016l0.562-1.183   c4.407-9.279,13.888-15.275,24.153-15.275c14.736,0,26.725,11.988,26.725,26.724v1.993l1.949,0.14   c6.402,0.459,11.418,5.853,11.418,12.279C91.409,71.727,85.886,77.249,79.099,77.249z"/><path fill="url(#SvgjsLinearGradient1926)" d="M39.803,59.571c-0.046-0.634-0.6-1.113-1.234-1.066L37.55,58.58c-0.227-0.685-0.55-1.319-0.954-1.896   l0.667-0.771c0.416-0.482,0.362-1.213-0.119-1.629l-0.978-0.845c-0.467-0.401-1.226-0.347-1.627,0.119l-0.667,0.773   c-0.627-0.314-1.303-0.542-2.013-0.668l-0.075-1.018c-0.046-0.634-0.601-1.113-1.235-1.066l-1.288,0.094   c-0.635,0.047-1.113,0.602-1.067,1.235l0.075,1.017c-0.684,0.229-1.32,0.551-1.896,0.956l-0.771-0.667   c-0.465-0.404-1.225-0.349-1.629,0.118l-0.844,0.979c-0.202,0.233-0.3,0.531-0.278,0.839c0.023,0.308,0.164,0.588,0.397,0.788   l0.773,0.668c-0.316,0.627-0.543,1.304-0.668,2.013l-1.018,0.075c-0.634,0.046-1.113,0.601-1.066,1.234l0.095,1.289   c0.046,0.634,0.601,1.113,1.235,1.065l1.017-0.073c0.228,0.684,0.55,1.319,0.955,1.895l-0.667,0.773   c-0.202,0.232-0.3,0.529-0.277,0.838c0.021,0.308,0.163,0.589,0.396,0.79l0.979,0.844c0.232,0.202,0.531,0.3,0.838,0.277   s0.588-0.163,0.789-0.396l0.668-0.773c0.627,0.315,1.304,0.542,2.013,0.669l0.075,1.017c0.046,0.634,0.602,1.112,1.235,1.066   l1.288-0.095c0.635-0.046,1.113-0.601,1.066-1.235l-0.075-1.017c0.684-0.228,1.32-0.55,1.895-0.954l0.773,0.667   c0.234,0.202,0.532,0.3,0.84,0.277c0.307-0.023,0.587-0.164,0.788-0.397l0.844-0.978c0.417-0.48,0.363-1.211-0.118-1.628   l-0.774-0.667c0.316-0.628,0.543-1.304,0.668-2.013l1.017-0.074c0.635-0.047,1.113-0.602,1.066-1.236L39.803,59.571z    M30.918,65.446c-0.664,0.049-1.314-0.045-1.934-0.276c-1.664-0.624-2.822-2.17-2.952-3.94c-0.183-2.511,1.709-4.702,4.218-4.887   c0.664-0.049,1.314,0.045,1.933,0.276c1.664,0.623,2.824,2.17,2.954,3.94C35.32,63.07,33.427,65.262,30.918,65.446z"/><path fill="url(#SvgjsLinearGradient1926)" d="M69.075,48.296c-0.078-1.067-1.01-1.873-2.076-1.793l-1.711,0.126c-0.381-1.15-0.926-2.219-1.604-3.187   l1.121-1.299c0.699-0.811,0.609-2.038-0.199-2.737l-1.645-1.421c-0.785-0.675-2.061-0.582-2.736,0.201l-1.123,1.301   c-1.055-0.53-2.191-0.912-3.385-1.125l-0.125-1.708c-0.078-1.067-1.01-1.872-2.078-1.793L51.35,35.02   c-1.067,0.079-1.872,1.011-1.793,2.078l0.126,1.709c-1.149,0.383-2.219,0.926-3.187,1.606l-1.298-1.121   c-0.782-0.68-2.059-0.586-2.737,0.199l-1.419,1.645c-0.339,0.392-0.504,0.893-0.467,1.41c0.04,0.517,0.277,0.989,0.668,1.325   l1.3,1.124c-0.531,1.054-0.914,2.192-1.124,3.385l-1.709,0.125c-1.068,0.078-1.871,1.01-1.793,2.076l0.158,2.167   c0.079,1.065,1.01,1.872,2.077,1.793l1.709-0.125c0.382,1.149,0.926,2.218,1.606,3.186l-1.123,1.299   c-0.339,0.392-0.504,0.893-0.466,1.41c0.037,0.516,0.274,0.989,0.666,1.328l1.645,1.418c0.392,0.339,0.894,0.505,1.41,0.468   c0.518-0.037,0.988-0.275,1.326-0.667l1.124-1.302c1.055,0.532,2.191,0.913,3.384,1.125l0.125,1.709   c0.078,1.065,1.01,1.872,2.077,1.793l2.167-0.159c1.068-0.078,1.871-1.01,1.793-2.076l-0.127-1.71   c1.15-0.384,2.221-0.926,3.188-1.605l1.299,1.124c0.393,0.339,0.893,0.504,1.412,0.466c0.516-0.038,0.986-0.276,1.324-0.667   l1.42-1.645c0.697-0.811,0.609-2.038-0.201-2.736l-1.301-1.123c0.531-1.056,0.914-2.192,1.125-3.386l1.709-0.124   c1.066-0.077,1.869-1.011,1.793-2.079L69.075,48.296z M54.138,58.175c-1.118,0.081-2.211-0.075-3.252-0.465   c-2.797-1.048-4.745-3.649-4.963-6.627c-0.309-4.22,2.873-7.905,7.09-8.214c1.117-0.083,2.211,0.075,3.25,0.464   c2.797,1.048,4.748,3.649,4.967,6.625C61.536,54.18,58.356,57.865,54.138,58.175z"/></g></g><g id="SvgjsG1921" featureKey="text1" fill="#000" transform="matrix(4.037684440612793,0,0,4.037684440612793,224.65814418206423,31.126517656033073)"><path d="M6.8 15.22 q0.84 0.34 1.51 0.69 t1.15 0.84 t0.74 1.18 t0.26 1.67 q0 1.06 -0.37 1.91 t-1.09 1.46 t-1.77 0.94 t-2.41 0.33 q-1.24 0 -2.19 -0.2 t-2.05 -0.62 q0.08 -0.7 0.28 -1.49 t0.48 -1.61 q1.84 0.8 3.2 0.8 q1.02 0 1.59 -0.31 t0.57 -1.07 q0 -0.32 -0.12 -0.55 t-0.32 -0.39 t-0.45 -0.27 t-0.51 -0.21 l-1.12 -0.42 q-0.72 -0.26 -1.31 -0.62 t-1.01 -0.85 t-0.65 -1.13 t-0.23 -1.5 q0 -1.06 0.36 -1.88 t1.01 -1.39 t1.57 -0.86 t2.06 -0.29 q1.02 0 1.97 0.2 t2.03 0.58 q-0.08 0.64 -0.29 1.41 t-0.53 1.45 q-0.52 -0.22 -1.22 -0.46 t-1.74 -0.24 q-0.32 0 -0.61 0.06 t-0.52 0.19 t-0.37 0.36 t-0.14 0.57 q0 0.58 0.38 0.86 t0.9 0.48 z M18.74 20.18 l-2.96 0 l0 3.8 q-0.52 0.08 -0.94 0.12 t-0.76 0.04 t-0.76 -0.04 t-0.92 -0.12 l0 -10.32 q0.44 -0.1 0.87 -0.14 t0.83 -0.04 q0.38 0 0.82 0.04 t0.86 0.14 l0 3.52 l2.96 0 l0 -3.52 q0.44 -0.1 0.87 -0.14 t0.83 -0.04 q0.38 0 0.82 0.04 t0.86 0.14 l0 10.32 q-0.52 0.08 -0.94 0.12 t-0.76 0.04 t-0.76 -0.04 t-0.92 -0.12 l0 -3.8 z M23.840000000000003 20.62 q0 -0.98 0.42 -1.62 t1.08 -1.02 t1.46 -0.53 t1.56 -0.15 l1.22 0 q-0.02 -0.36 -0.2 -0.6 t-0.46 -0.37 t-0.62 -0.18 t-0.7 -0.05 q-0.48 0 -1.12 0.11 t-1.32 0.35 q-0.18 -0.34 -0.31 -0.62 t-0.2 -0.57 t-0.1 -0.6 t-0.03 -0.71 q0.96 -0.32 1.91 -0.48 t1.71 -0.16 q1.04 0 1.88 0.25 t1.43 0.77 t0.91 1.33 t0.32 1.93 l0 5.86 q-0.76 0.22 -1.84 0.44 t-2.28 0.22 q-1.04 0 -1.91 -0.19 t-1.49 -0.61 t-0.97 -1.11 t-0.35 -1.69 z M28.560000000000002 21.740000000000002 q0.18 0 0.52 -0.04 t0.5 -0.08 l0 -2.2 l-1.14 0 q-0.7 0 -1.18 0.3 t-0.48 0.84 q0 0.4 0.18 0.63 t0.45 0.35 t0.58 0.16 t0.57 0.04 z M34.82 13.7 q0.94 -0.12 1.95 -0.2 t1.91 -0.08 q2.42 0 3.63 0.91 t1.21 2.55 q0 0.62 -0.14 1.08 t-0.34 0.79 t-0.42 0.53 t-0.36 0.32 l2.28 4.36 q-0.4 0.08 -0.89 0.12 t-0.95 0.04 q-0.56 0 -1.08 -0.04 t-0.86 -0.12 l-2.22 -4.72 l0.28 -0.16 q0.7 -0.4 0.96 -0.85 t0.26 -0.97 t-0.31 -0.85 t-0.99 -0.33 q-0.38 0 -0.58 0.04 l0 7.86 q-0.52 0.1 -0.94 0.13 t-0.74 0.03 q-0.34 0 -0.74 -0.03 t-0.92 -0.13 l0 -10.28 z M49.10000000000001 19 q0.1 0.02 0.25 0.03 t0.25 0.01 q0.7 0 1.15 -0.35 t0.45 -1.19 q0 -0.72 -0.45 -1.11 t-1.11 -0.39 l-0.23 0 t-0.31 0.02 l0 2.98 z M45.800000000000004 13.7 q0.92 -0.14 1.89 -0.21 t1.87 -0.07 q0.92 0 1.8 0.17 t1.58 0.62 t1.13 1.24 t0.43 2.05 q0 1.14 -0.39 1.92 t-1.03 1.26 t-1.45 0.69 t-1.65 0.21 q-0.34 0 -0.58 -0.02 t-0.3 -0.04 l0 2.46 q-0.52 0.1 -0.93 0.13 t-0.73 0.03 q-0.34 0 -0.73 -0.03 t-0.91 -0.13 l0 -10.28 z M59.02000000000001 19.9 q0.22 0.82 0.77 1.16 t1.45 0.34 q0.58 0 1.3 -0.14 t1.42 -0.42 q0.28 0.52 0.49 1.24 t0.23 1.5 q-1.78 0.66 -3.64 0.66 q-1.44 0 -2.47 -0.4 t-1.68 -1.11 t-0.96 -1.69 t-0.31 -2.14 q0 -1.14 0.32 -2.14 t0.96 -1.74 t1.6 -1.17 t2.24 -0.43 q1.06 0 1.89 0.36 t1.41 0.99 t0.89 1.52 t0.31 1.93 q0 0.54 -0.05 0.97 t-0.09 0.71 l-6.08 0 z M60.620000000000005 15.96 q-0.64 0 -1.1 0.4 t-0.54 1.24 l3.2 0 q-0.04 -0.7 -0.43 -1.17 t-1.13 -0.47 z M71.86 17.52 q0.6 0.16 1.09 0.39 t0.84 0.59 t0.55 0.88 t0.2 1.26 q0 0.76 -0.31 1.42 t-0.92 1.14 t-1.5 0.76 t-2.05 0.28 q-0.96 0 -1.78 -0.14 t-1.74 -0.48 q0.1 -1.36 0.74 -2.76 q0.64 0.3 1.34 0.45 t1.4 0.15 q0.24 0 0.5 -0.02 t0.46 -0.09 t0.33 -0.19 t0.13 -0.32 q0 -0.26 -0.26 -0.39 t-0.6 -0.23 l-1.36 -0.38 q-1.06 -0.3 -1.76 -1.02 t-0.7 -1.96 q0 -0.78 0.32 -1.42 t0.9 -1.09 t1.37 -0.69 t1.75 -0.24 q0.76 0 1.66 0.16 t1.78 0.46 q-0.04 0.64 -0.26 1.37 t-0.5 1.29 q-0.54 -0.22 -1.3 -0.4 t-1.4 -0.18 q-0.94 0 -0.94 0.52 q0 0.22 0.22 0.34 t0.5 0.2 z M78.58000000000001 16.48 l-2.96 0 q-0.1 -0.4 -0.13 -0.75 t-0.03 -0.67 t0.03 -0.66 t0.13 -0.74 l9.3 0 q0.1 0.4 0.13 0.74 t0.03 0.66 t-0.03 0.67 t-0.13 0.75 l-2.96 0 l0 7.5 q-0.52 0.08 -0.94 0.12 t-0.76 0.04 t-0.76 -0.04 t-0.92 -0.12 l0 -7.5 z"/></g><g id="SvgjsG1922" featureKey="text3" fill="#000" transform="matrix(1.2738852500915527,0,0,1.2738852500915527,261.471339111749,137.98726170595683)"><path d="M14.98 7.080000000000002 l-1.4 1.64 c-1.08 -1.12 -2.66 -1.8 -4.36 -1.8 c-3.32 0 -5.88 2.38 -5.88 5.74 c0 3.22 2.78 5.58 5.9 5.58 c1.94 0 3.66 -0.9 4.74 -2.34 l1.34 1.82 c-1.5 1.68 -3.7 2.7 -6.1 2.7 c-4.52 0 -8.02 -3.52 -8.02 -8.02 c0 -4.4 3.76 -7.68 8.04 -7.68 c2.24 0 4.28 0.9 5.74 2.36 z M31.418000000000003 14.820000000000002 c0 -2.32 -2 -3.32 -3.96 -3.32 c-2 0 -3.96 1.06 -3.96 3.4 s2 3.4 3.98 3.4 c1.96 0 3.94 -1.24 3.94 -3.48 z M33.578 14.8 c0 3.52 -3 5.6 -6.14 5.6 s-6.1 -2.04 -6.1 -5.54 c0 -3.52 3.02 -5.48 6.12 -5.48 c3.12 0 6.12 1.82 6.12 5.42 z M53.57600000000001 9.720000000000002 l-1.02 1.66 l0 8.7 l-2.26 0 l0 -6.06 l-3.66 4.88 l-3.66 -4.88 l0 6.06 l-2.26 0 l0 -8.7 l-1.02 -1.66 l2.52 0 l4.42 5.86 l4.42 -5.86 l2.52 0 z M62.734 11.780000000000001 l0 3.1 c0.9 -0.52 2.06 -0.6 3.26 -0.6 l0.92 0 c0.98 0 1.64 -0.18 1.64 -1.3 c0 -1.02 -0.8 -1.2 -1.64 -1.2 l-4.18 0 z M62.734 20.080000000000002 l-2.04 0 l0 -10.36 l6.58 0 c2 0 3.38 1.28 3.38 3.28 c0 2.04 -1.42 3.34 -3.74 3.34 l-0.92 0 c-1.9 0 -2.36 0.12 -3.26 0.6 l0 3.14 z M82.69200000000001 20.400000000000002 l-0.04 0 c-2.88 0 -4.98 -1.34 -4.98 -4.38 l0 -6.3 l2.06 0 l0 6.3 c0 1.76 1.18 2.3 2.94 2.3 s2.94 -0.54 2.94 -2.3 l0 -6.3 l2.06 0 l0 6.3 c0 3.04 -2.1 4.38 -4.98 4.38 z M104.01 11.780000000000001 l-3.9 0 l0 8.3 l-2.06 0 l0 -8.3 l-3.76 0 l0 -2.06 l9.72 0 l0 2.06 z M112.86800000000001 16.360000000000003 l0 1.64 l6.5 0 l0 2.08 l-8.54 0 l0 -10.36 l8.16 0 l0 2.06 l-6.12 0 l0 2.52 c0.9 -0.52 2.04 -0.6 3.24 -0.6 l1.52 0 l0 2.06 l-1.52 0 c-1.9 0 -2.34 0.12 -3.24 0.6 z M134.44600000000003 15.860000000000003 l0.64 1.08 c0.5 0.84 1.22 0.92 1.74 0.92 l0.72 0 l0 2.22 l-0.9 0 c-1.08 0 -2.06 -0.08 -3.02 -1.64 l-1.6 -2.6 l-0.14 0 c-1.62 0 -2.06 0.16 -2.9 0.6 l0 3.64 l-2.1 0 l0 -10.36 l6.68 0 c1.9 0 3.26 1.32 3.26 3.12 c0 1.58 -0.88 2.56 -2.38 3.02 z M131.88600000000002 13.780000000000001 l1.68 0 c0.62 0 1.16 -0.34 1.16 -1 c0 -0.92 -0.8 -1 -1.52 -1 l-4.22 0 l0 2.6 c0.8 -0.44 1.82 -0.6 2.9 -0.6 z M153.104 10.680000000000001 l-1.38 1.6 c-0.8 -0.66 -1.88 -0.9 -3.08 -0.9 c-1 0 -2.1 0.52 -2.1 1.12 c0 0.62 0.24 1.04 2.26 1.04 c4.42 0 5.1 1.5 5.1 3.18 c0 2.48 -2.28 3.68 -5.24 3.68 c-1.8 0 -3.56 -0.86 -4.7 -2.2 l1.48 -1.5 c0.62 0.66 1.38 1.7 3.22 1.7 c1.88 0 3.2 -0.6 3.2 -1.68 c0 -0.94 -1.04 -1.14 -3.2 -1.14 c-2.48 0 -4.28 -0.82 -4.28 -3.08 c0 -1.88 1.98 -3.12 4.28 -3.12 c1.5 0 2.92 0.26 4.44 1.3 z  M180.42000000000002 20.080000000000002 l-10.46 0 l0 -14.92 l2.18 0 l0 12.74 l8.28 0 l0 2.18 z M194.95800000000003 11.780000000000001 l-3.9 0 l0 8.3 l-2.06 0 l0 -8.3 l-3.76 0 l0 -2.06 l9.72 0 l0 2.06 z M206.89600000000002 11.780000000000001 l-2.06 0 l0 6.22 l2.06 0 c2 0 3.14 -1.14 3.14 -3.14 c0 -2.02 -1.14 -3.08 -3.14 -3.08 z M201.39600000000002 11.780000000000001 l-0.92 -2.06 l6.42 0 c3.12 0 5.24 1.8 5.24 5.1 c0 3.22 -2.08 5.26 -5.24 5.26 l-4.22 0 l0 -8.3 l-1.28 0 z"/></g>
			</g>
		</svg>
	